<mxfile host="app.diagrams.net" agent="Mozilla/5.0 (Windows NT 10.0; Win64; x64) AppleWebKit/537.36 (KHTML, like Gecko) Chrome/133.0.0.0 Safari/537.36" version="26.0.16">
  <diagram name="アジャイル開発サイクル" id="vzYCT5HHr7VZLlhXaZqx">
    <mxGraphModel dx="1434" dy="738" grid="1" gridSize="10" guides="1" tooltips="1" connect="1" arrows="1" fold="1" page="1" pageScale="1" pageWidth="827" pageHeight="1169" math="0" shadow="0">
      <root>
        <mxCell id="0" />
        <mxCell id="1" parent="0" />
        <mxCell id="NiFGKUS8jCbmOThsBjz_-1" value="&lt;font style=&quot;font-size: 20px;&quot;&gt;計画&lt;br&gt;Planning&lt;/font&gt;" style="ellipse;whiteSpace=wrap;html=1;aspect=fixed;fillColor=#dae8fc;strokeColor=#6c8ebf;shadow=0;fontSize=16;fontStyle=1" parent="1" vertex="1">
          <mxGeometry x="230" y="120" width="120" height="120" as="geometry" />
        </mxCell>
        <mxCell id="NiFGKUS8jCbmOThsBjz_-2" value="&lt;font style=&quot;font-size: 20px;&quot;&gt;開発&lt;br&gt;Development&lt;/font&gt;" style="ellipse;whiteSpace=wrap;html=1;aspect=fixed;fillColor=#d5e8d4;strokeColor=#82b366;shadow=0;fontSize=16;fontStyle=1" parent="1" vertex="1">
          <mxGeometry x="480" y="120" width="120" height="120" as="geometry" />
        </mxCell>
        <mxCell id="NiFGKUS8jCbmOThsBjz_-3" value="&lt;font style=&quot;font-size: 20px;&quot;&gt;テスト&lt;br&gt;Testing&lt;/font&gt;" style="ellipse;whiteSpace=wrap;html=1;aspect=fixed;fillColor=#ffe6cc;strokeColor=#d79b00;shadow=0;fontSize=16;fontStyle=1" parent="1" vertex="1">
          <mxGeometry x="480" y="370" width="120" height="120" as="geometry" />
        </mxCell>
        <mxCell id="NiFGKUS8jCbmOThsBjz_-4" value="&lt;font style=&quot;font-size: 20px;&quot;&gt;リリース&lt;br&gt;Release&lt;/font&gt;" style="ellipse;whiteSpace=wrap;html=1;aspect=fixed;fillColor=#e1d5e7;strokeColor=#9673a6;shadow=0;fontSize=16;fontStyle=1" parent="1" vertex="1">
          <mxGeometry x="230" y="370" width="120" height="120" as="geometry" />
        </mxCell>
        <mxCell id="NiFGKUS8jCbmOThsBjz_-5" value="" style="endArrow=classic;html=1;rounded=0;exitX=1;exitY=0.5;exitDx=0;exitDy=0;entryX=0;entryY=0.5;entryDx=0;entryDy=0;strokeWidth=3;fillColor=#dae8fc;strokeColor=#3399FF;" parent="1" source="NiFGKUS8jCbmOThsBjz_-1" target="NiFGKUS8jCbmOThsBjz_-2" edge="1">
          <mxGeometry width="50" height="50" relative="1" as="geometry">
            <mxPoint x="390" y="400" as="sourcePoint" />
            <mxPoint x="440" y="350" as="targetPoint" />
          </mxGeometry>
        </mxCell>
        <mxCell id="NiFGKUS8jCbmOThsBjz_-6" value="" style="endArrow=classic;html=1;rounded=0;exitX=0.5;exitY=1;exitDx=0;exitDy=0;entryX=0.5;entryY=0;entryDx=0;entryDy=0;strokeWidth=3;fillColor=#d5e8d4;strokeColor=#33CC33;" parent="1" source="NiFGKUS8jCbmOThsBjz_-2" target="NiFGKUS8jCbmOThsBjz_-3" edge="1">
          <mxGeometry width="50" height="50" relative="1" as="geometry">
            <mxPoint x="390" y="400" as="sourcePoint" />
            <mxPoint x="440" y="350" as="targetPoint" />
          </mxGeometry>
        </mxCell>
        <mxCell id="NiFGKUS8jCbmOThsBjz_-7" value="" style="endArrow=classic;html=1;rounded=0;exitX=0;exitY=0.5;exitDx=0;exitDy=0;entryX=1;entryY=0.5;entryDx=0;entryDy=0;strokeWidth=3;fillColor=#ffe6cc;strokeColor=#FF9933;" parent="1" source="NiFGKUS8jCbmOThsBjz_-3" target="NiFGKUS8jCbmOThsBjz_-4" edge="1">
          <mxGeometry width="50" height="50" relative="1" as="geometry">
            <mxPoint x="390" y="400" as="sourcePoint" />
            <mxPoint x="440" y="350" as="targetPoint" />
          </mxGeometry>
        </mxCell>
        <mxCell id="NiFGKUS8jCbmOThsBjz_-8" value="" style="endArrow=classic;html=1;rounded=0;exitX=0.5;exitY=0;exitDx=0;exitDy=0;entryX=0.5;entryY=1;entryDx=0;entryDy=0;strokeWidth=3;fillColor=#e1d5e7;strokeColor=#9933FF;" parent="1" source="NiFGKUS8jCbmOThsBjz_-4" target="NiFGKUS8jCbmOThsBjz_-1" edge="1">
          <mxGeometry width="50" height="50" relative="1" as="geometry">
            <mxPoint x="390" y="400" as="sourcePoint" />
            <mxPoint x="440" y="350" as="targetPoint" />
          </mxGeometry>
        </mxCell>
        <mxCell id="NiFGKUS8jCbmOThsBjz_-9" value="&lt;font style=&quot;font-size: 24px;&quot;&gt;アジャイル開発サイクル&lt;/font&gt;" style="text;html=1;strokeColor=none;fillColor=none;align=center;verticalAlign=middle;whiteSpace=wrap;rounded=0;fontStyle=1;fontSize=24;" parent="1" vertex="1">
          <mxGeometry x="200" y="40" width="430" height="40" as="geometry" />
        </mxCell>
        <mxCell id="NiFGKUS8jCbmOThsBjz_-10" value="&lt;ul&gt;&lt;li&gt;要件の収集&lt;/li&gt;&lt;li&gt;優先順位付け&lt;/li&gt;&lt;li&gt;スプリント計画&lt;/li&gt;&lt;li&gt;タスク分割&lt;/li&gt;&lt;/ul&gt;" style="text;html=1;strokeColor=none;fillColor=none;align=left;verticalAlign=middle;whiteSpace=wrap;rounded=0;" parent="1" vertex="1">
          <mxGeometry x="90" y="130" width="140" height="80" as="geometry" />
        </mxCell>
        <mxCell id="NiFGKUS8jCbmOThsBjz_-11" value="&lt;ul&gt;&lt;li&gt;コーディング&lt;/li&gt;&lt;li&gt;ペアプログラミング&lt;/li&gt;&lt;li&gt;継続的統合&lt;/li&gt;&lt;li&gt;デイリースクラム&lt;/li&gt;&lt;/ul&gt;" style="text;html=1;strokeColor=none;fillColor=none;align=left;verticalAlign=middle;whiteSpace=wrap;rounded=0;" parent="1" vertex="1">
          <mxGeometry x="600" y="130" width="170" height="80" as="geometry" />
        </mxCell>
        <mxCell id="NiFGKUS8jCbmOThsBjz_-12" value="&lt;ul&gt;&lt;li&gt;単体テスト&lt;/li&gt;&lt;li&gt;統合テスト&lt;/li&gt;&lt;li&gt;受け入れテスト&lt;/li&gt;&lt;li&gt;バグ修正&lt;/li&gt;&lt;/ul&gt;" style="text;html=1;strokeColor=none;fillColor=none;align=left;verticalAlign=middle;whiteSpace=wrap;rounded=0;" parent="1" vertex="1">
          <mxGeometry x="600" y="380" width="150" height="80" as="geometry" />
        </mxCell>
        <mxCell id="NiFGKUS8jCbmOThsBjz_-13" value="&lt;ul&gt;&lt;li&gt;デプロイ&lt;/li&gt;&lt;li&gt;ユーザーフィードバック&lt;/li&gt;&lt;li&gt;レトロスペクティブ&lt;/li&gt;&lt;li&gt;次のスプリント準備&lt;/li&gt;&lt;/ul&gt;" style="text;html=1;strokeColor=none;fillColor=none;align=left;verticalAlign=middle;whiteSpace=wrap;rounded=0;" parent="1" vertex="1">
          <mxGeometry x="60" y="380" width="170" height="80" as="geometry" />
        </mxCell>
        <mxCell id="NiFGKUS8jCbmOThsBjz_-14" value="" style="ellipse;whiteSpace=wrap;html=1;aspect=fixed;fillColor=none;strokeColor=#666666;strokeWidth=3;dashed=1;" parent="1" vertex="1">
          <mxGeometry x="170" y="70" width="490" height="490" as="geometry" />
        </mxCell>
        <mxCell id="NiFGKUS8jCbmOThsBjz_-15" value="&lt;font style=&quot;font-size: 18px;&quot;&gt;Sprint&lt;/font&gt;" style="text;html=1;strokeColor=none;fillColor=none;align=center;verticalAlign=middle;whiteSpace=wrap;rounded=0;fontSize=18;fontStyle=1" parent="1" vertex="1">
          <mxGeometry x="385" y="520" width="60" height="30" as="geometry" />
        </mxCell>
        <mxCell id="NiFGKUS8jCbmOThsBjz_-16" value="" style="shape=flexArrow;endArrow=classic;html=1;rounded=0;fillColor=#f5f5f5;strokeColor=#666666;endWidth=36;endSize=11.33;" parent="1" edge="1">
          <mxGeometry width="50" height="50" relative="1" as="geometry">
            <mxPoint x="670" y="310" as="sourcePoint" />
            <mxPoint x="740" y="310" as="targetPoint" />
          </mxGeometry>
        </mxCell>
        <mxCell id="NiFGKUS8jCbmOThsBjz_-17" value="&lt;font style=&quot;font-size: 16px;&quot;&gt;反復&lt;br&gt;Iteration&lt;/font&gt;" style="text;html=1;strokeColor=none;fillColor=none;align=center;verticalAlign=middle;whiteSpace=wrap;rounded=0;fontSize=16;fontStyle=1" parent="1" vertex="1">
          <mxGeometry x="740" y="295" width="80" height="30" as="geometry" />
        </mxCell>
        <mxCell id="NiFGKUS8jCbmOThsBjz_-18" value="&lt;div style=&quot;text-align: center; font-size: 14px;&quot;&gt;&lt;b&gt;アジャイル価値&lt;/b&gt;&lt;/div&gt;&lt;div style=&quot;text-align: center; font-size: 14px;&quot;&gt;&lt;b&gt;Agile Values&lt;/b&gt;&lt;/div&gt;&lt;div style=&quot;font-size: 12px;&quot;&gt;・個人と対話&lt;/div&gt;&lt;div style=&quot;font-size: 12px;&quot;&gt;・動くソフトウェア&lt;/div&gt;&lt;div style=&quot;font-size: 12px;&quot;&gt;・顧客との協調&lt;/div&gt;&lt;div style=&quot;font-size: 12px;&quot;&gt;・変化への対応&lt;/div&gt;" style="rounded=1;whiteSpace=wrap;html=1;fillColor=#fff2cc;strokeColor=#d6b656;align=left;spacingLeft=10;" parent="1" vertex="1">
          <mxGeometry x="330" y="230" width="170" height="140" as="geometry" />
        </mxCell>
      </root>
    </mxGraphModel>
  </diagram>
</mxfile>
